<?xml version="1.0" encoding="UTF-8" standalone="no"?>
<!-- Created with Inkscape (http://www.inkscape.org/) -->

<svg
   xmlns:dc="http://purl.org/dc/elements/1.1/"
   xmlns:cc="http://creativecommons.org/ns#"
   xmlns:rdf="http://www.w3.org/1999/02/22-rdf-syntax-ns#"
   xmlns:svg="http://www.w3.org/2000/svg"
   xmlns="http://www.w3.org/2000/svg"
   xmlns:sodipodi="http://sodipodi.sourceforge.net/DTD/sodipodi-0.dtd"
   xmlns:inkscape="http://www.inkscape.org/namespaces/inkscape"
   width="182.22401mm"
   height="182.22453mm"
   viewBox="0 0 182.22401 182.22453"
   version="1.1"
   id="svg956"
   inkscape:version="0.92.5 (2060ec1f9f, 2020-04-08)"
   sodipodi:docname="text.svg"
   inkscape:export-filename="/home/woot/Documents/blacker/hyper/text.png"
   inkscape:export-xdpi="96"
   inkscape:export-ydpi="96">
  <defs
     id="defs950" />
  <sodipodi:namedview
     id="base"
     pagecolor="#ffffff"
     bordercolor="#666666"
     borderopacity="1.0"
     inkscape:pageopacity="0.0"
     inkscape:pageshadow="2"
     inkscape:zoom="1"
     inkscape:cx="127.72171"
     inkscape:cy="529.94018"
     inkscape:document-units="mm"
     inkscape:current-layer="g1855"
     showgrid="false"
     inkscape:window-width="1920"
     inkscape:window-height="1052"
     inkscape:window-x="1920"
     inkscape:window-y="0"
     inkscape:window-maximized="1"
     showguides="true"
     inkscape:guide-bbox="true"
     units="mm"
     fit-margin-top="0"
     fit-margin-left="0"
     fit-margin-right="0"
     fit-margin-bottom="0" />
  <metadata
     id="metadata953">
    <rdf:RDF>
      <cc:Work
         rdf:about="">
        <dc:format>image/svg+xml</dc:format>
        <dc:type
           rdf:resource="http://purl.org/dc/dcmitype/StillImage" />
        <dc:title></dc:title>
      </cc:Work>
    </rdf:RDF>
  </metadata>
  <g
     inkscape:groupmode="layer"
     id="layer10"
     inkscape:label="Background"
     style="display:inline"
     transform="translate(-13.888041,-57.387712)">
    <circle
       style="display:inline;opacity:1;fill:#00997b;fill-opacity:0;stroke:none;stroke-width:1.32291663;stroke-miterlimit:4;stroke-dasharray:none;stroke-opacity:1"
       id="path1817-2"
       cx="105"
       cy="124.00712"
       r="97.328873" />
  </g>
  <g
     inkscape:groupmode="layer"
     id="layer13"
     inkscape:label="Inner Background Color"
     style="display:inline"
     transform="translate(-13.888041,-57.387712)" />
  <g
     inkscape:groupmode="layer"
     id="layer19"
     inkscape:label="Decorative Borders"
     style="display:inline"
     transform="translate(-13.888041,-57.387712)" />
  <g
     inkscape:groupmode="layer"
     id="layer11"
     inkscape:label="Text/Laurels Border"
     transform="translate(-13.888041,-57.387712)" />
  <g
     inkscape:groupmode="layer"
     id="layer7"
     inkscape:label="Hyperskelion Logo"
     style="display:inline"
     transform="translate(-13.888041,-57.387712)">
    <circle
       style="display:inline;opacity:1;fill:#000000;fill-opacity:0;stroke:none;stroke-width:1.32291663;stroke-miterlimit:4;stroke-dasharray:none;stroke-opacity:1"
       id="path1817-0-6"
       cx="105"
       cy="124.00712"
       r="73.428772" />
    <g
       id="g1855"
       inkscape:export-xdpi="96"
       inkscape:export-ydpi="96">
      <g
         id="text2671"
         style="font-style:normal;font-variant:normal;font-weight:normal;font-stretch:normal;font-size:12.69999981px;line-height:1.25;font-family:Arial;-inkscape-font-specification:Arial;letter-spacing:0px;word-spacing:0px;display:inline;fill:#00503f;fill-opacity:1;stroke:none;stroke-width:0.26458332"
         transform="translate(-0.06681742,-0.4161046)"
         aria-label="FEDERAL BUREAU OF COGNITION">
        <path
           inkscape:connector-curvature="0"
           id="path2724"
           style="font-style:normal;font-variant:normal;font-weight:normal;font-stretch:normal;font-family:'Times New Roman';-inkscape-font-specification:'Times New Roman, ';fill:#00503f;fill-opacity:1;stroke-width:0.26458332"
           d="m 42.206936,159.5362 -3.247088,0.61719 0.286014,1.50475 q 0.09843,0.51783 0.368995,0.71257 0.277817,0.19969 0.969094,0.15035 l 0.04284,0.22541 -2.796273,0.5315 -0.04284,-0.22541 q 0.480118,-0.0976 0.682367,-0.26225 0.203406,-0.1586 0.272536,-0.39267 0.07638,-0.22913 -0.0024,-0.64339 l -0.286015,-1.50475 -2.595234,0.49329 q -0.627486,0.11927 -0.813472,0.23668 -0.140723,0.0899 -0.213326,0.30566 -0.09526,0.29584 -0.03968,0.58826 l 0.05674,0.29852 -0.225408,0.0428 -0.673929,-3.5456 0.225407,-0.0429 0.05558,0.29242 q 0.09727,0.51174 0.439784,0.6865 0.222738,0.10916 0.965974,-0.0321 l 5.336679,-1.01437 q 0.627486,-0.11927 0.813472,-0.23668 0.140723,-0.0899 0.214484,-0.29957 0.09642,-0.28975 0.03968,-0.58826 l -0.05558,-0.29242 0.225408,-0.0428 1.168377,6.14693 -1.800392,0.42427 -0.04053,-0.21323 q 0.548643,-0.2684 0.776167,-0.53257 0.234774,-0.25924 0.29756,-0.5931 0.06394,-0.32776 -0.0588,-0.97352 z" />
        <path
           inkscape:connector-curvature="0"
           id="path2726"
           style="font-style:normal;font-variant:normal;font-weight:normal;font-stretch:normal;font-family:'Times New Roman';-inkscape-font-specification:'Times New Roman, ';fill:#00503f;fill-opacity:1;stroke-width:0.26458332"
           d="m 43.591758,165.68707 -3.184264,0.95305 0.529867,1.77035 q 0.206257,0.68914 0.483529,0.85859 0.365736,0.22713 1.065536,0.0565 l 0.06579,0.21981 -2.804053,0.83925 -0.06579,-0.21981 q 0.563245,-0.2592 0.704694,-0.39216 0.175922,-0.16916 0.221837,-0.4483 0.04592,-0.27913 -0.105222,-0.7841 l -0.529866,-1.77035 -2.655533,0.7948 q -0.534671,0.16002 -0.639262,0.24311 -0.09865,0.0813 -0.134379,0.22146 -0.02979,0.13838 0.06978,0.47106 l 0.408958,1.36638 q 0.204478,0.6832 0.391991,0.96367 0.187512,0.28047 0.552077,0.48206 0.47857,0.25809 1.336743,0.42198 l 0.07112,0.23763 -2.227903,-0.0905 -1.858089,-6.20812 0.21981,-0.0658 0.08535,0.28516 q 0.08535,0.28515 0.298443,0.49971 0.151951,0.16166 0.361615,0.17011 0.211442,0.0144 0.799581,-0.16164 l 5.233835,-1.56648 q 0.766362,-0.22938 0.898356,-0.43718 0.173621,-0.28499 0.02426,-0.78402 l -0.08535,-0.28515 0.219809,-0.0658 1.858089,6.20812 -1.737744,0.6172 -0.06934,-0.23169 q 0.598325,-0.31501 0.789727,-0.54059 0.193179,-0.21964 0.229032,-0.55402 0.01799,-0.26431 -0.161596,-0.86433 z" />
        <path
           inkscape:connector-curvature="0"
           id="path2728"
           style="font-style:normal;font-variant:normal;font-weight:normal;font-stretch:normal;font-family:'Times New Roman';-inkscape-font-specification:'Times New Roman, ';fill:#00503f;fill-opacity:1;stroke-width:0.26458332"
           d="m 37.490621,173.08506 0.210466,-0.0914 0.125943,0.2901 q 0.212374,0.48919 0.614129,0.55815 0.24204,0.0437 0.89619,-0.24034 l 4.982913,-2.16325 q 0.722409,-0.31363 0.835288,-0.55192 0.153974,-0.3305 -0.03618,-0.76849 l -0.125942,-0.29011 0.210465,-0.0914 1.363145,3.13992 q 0.750718,1.72923 0.748404,2.79837 1.55e-4,1.07483 -0.678586,2.01848 -0.676271,0.94935 -1.876493,1.47041 -1.609777,0.69885 -3.115294,0.18967 -1.682517,-0.5743 -2.657956,-2.82117 z m 1.513133,1.95935 q 0.154351,0.79155 0.366725,1.28074 0.572916,1.31968 1.87793,1.78746 1.305014,0.46778 2.892038,-0.2212 1.5984,-0.69392 2.14207,-1.96428 0.543669,-1.27036 -0.049,-2.63554 -0.222252,-0.51194 -0.6712,-1.09448 z" />
        <path
           inkscape:connector-curvature="0"
           id="path2730"
           style="font-style:normal;font-variant:normal;font-weight:normal;font-stretch:normal;font-family:'Times New Roman';-inkscape-font-specification:'Times New Roman, ';fill:#00503f;fill-opacity:1;stroke-width:0.26458332"
           d="m 49.304475,179.57687 -2.870169,1.6763 0.931971,1.59573 q 0.36278,0.62115 0.672167,0.72053 0.408946,0.13459 1.048866,-0.19606 l 0.115715,0.19812 -2.527462,1.47615 -0.115714,-0.19813 q 0.48634,-0.38458 0.592491,-0.54712 0.131124,-0.20584 0.109995,-0.48794 -0.02113,-0.28209 -0.286958,-0.73725 l -0.931971,-1.59573 -2.393591,1.39796 q -0.481932,0.28146 -0.564008,0.38685 -0.07672,0.10226 -0.07843,0.24689 0.0036,0.14149 0.178781,0.44136 l 0.719306,1.2316 q 0.359653,0.6158 0.607955,0.84421 0.248303,0.22842 0.650094,0.33846 0.525897,0.13809 1.398528,0.0952 l 0.125097,0.21419 -2.186537,0.43681 -3.268151,-5.59576 0.198127,-0.11571 0.150116,0.25703 q 0.150116,0.25703 0.407755,0.41535 0.185754,0.12132 0.391509,0.0801 0.208882,-0.0358 0.739007,-0.34543 l 4.717571,-2.75525 q 0.690768,-0.40344 0.770099,-0.63649 0.101605,-0.31787 -0.161098,-0.76767 l -0.150116,-0.25703 0.198127,-0.11571 3.268151,5.59575 -1.543462,1.00917 -0.121969,-0.20884 q 0.507287,-0.44708 0.640166,-0.7114 0.136006,-0.25897 0.09209,-0.59239 -0.04478,-0.2611 -0.360644,-0.80193 z" />
        <path
           inkscape:connector-curvature="0"
           id="path2732"
           style="font-style:normal;font-variant:normal;font-weight:normal;font-stretch:normal;font-family:'Times New Roman';-inkscape-font-specification:'Times New Roman, ';fill:#00503f;fill-opacity:1;stroke-width:0.26458332"
           d="m 50.146742,194.8886 -1.344906,-1.79735 1.442561,-4.6344 q -0.199406,-0.24579 -0.318293,-0.40467 -0.0483,-0.0645 -0.104025,-0.13902 -0.05076,-0.0782 -0.105242,-0.16135 l -1.95623,1.46379 q -0.635527,0.47555 -0.685418,0.72974 -0.07728,0.35215 0.205072,0.72949 l 0.196906,0.26315 -0.183707,0.13746 -2.158537,-2.8847 0.183707,-0.13746 0.189476,0.25322 q 0.319508,0.42699 0.735013,0.40265 0.231936,-0.0109 0.807882,-0.44187 l 4.349386,-3.25453 q 0.635526,-0.47554 0.685417,-0.72974 0.07357,-0.3571 -0.212502,-0.73941 l -0.189476,-0.25322 0.183707,-0.13746 1.835314,2.45273 q 0.802486,1.07246 1.022556,1.69778 0.22875,0.62657 0.0705,1.29488 -0.149569,0.66956 -0.73048,1.10424 -0.620631,0.4644 -1.382063,0.39907 -0.757717,-0.0604 -1.58169,-0.76822 l -0.891146,2.83543 q -0.308657,0.97449 -0.27077,1.48055 0.03789,0.50605 0.390695,1.10176 z m -0.117107,-7.37085 q 0.07059,0.0943 0.117637,0.16756 0.05201,0.0695 0.08545,0.1142 0.720751,0.96322 1.501906,1.13772 0.78487,0.17946 1.430327,-0.30352 0.630562,-0.47183 0.725584,-1.16253 0.103702,-0.68946 -0.38299,-1.33988 -0.215483,-0.28798 -0.677624,-0.70893 z" />
        <path
           inkscape:connector-curvature="0"
           id="path2734"
           style="font-style:normal;font-variant:normal;font-weight:normal;font-stretch:normal;font-family:'Times New Roman';-inkscape-font-specification:'Times New Roman, ';fill:#00503f;fill-opacity:1;stroke-width:0.26458332"
           d="m 56.13475,197.07003 -2.255746,-2.34748 -1.352168,0.50812 q -0.499326,0.18741 -0.67371,0.35498 -0.138613,0.13319 -0.121323,0.36598 0.02606,0.23297 0.415831,0.70124 l -0.165441,0.15898 -1.834673,-1.90928 0.165441,-0.15898 q 0.432287,0.31562 0.647016,0.32428 0.433756,0.0218 1.357442,-0.33258 l 7.039569,-2.66222 0.150383,0.1565 -3.015697,6.95712 q -0.363198,0.83922 -0.348879,1.22106 0.02309,0.38202 0.357353,0.77463 l -0.165441,0.15898 -2.298712,-2.39219 0.165441,-0.15898 q 0.365915,0.345 0.589064,0.37137 0.227444,0.0308 0.375,-0.11094 0.196741,-0.18905 0.449656,-0.77609 z m 0.210575,-0.44315 1.462087,-3.38299 -3.464329,1.29932 z" />
        <path
           inkscape:connector-curvature="0"
           id="path2736"
           style="font-style:normal;font-variant:normal;font-weight:normal;font-stretch:normal;font-family:'Times New Roman';-inkscape-font-specification:'Times New Roman, ';fill:#00503f;fill-opacity:1;stroke-width:0.26458332"
           d="m 63.573476,204.26277 0.130032,0.16387 -2.008682,1.30012 -5.017619,-4.14966 0.146226,-0.17681 0.243713,0.20156 q 0.410967,0.33987 0.809093,0.21849 0.226818,-0.0699 0.685256,-0.62425 l 3.458044,-4.18135 q 0.501911,-0.60689 0.494573,-0.87047 -0.01248,-0.36439 -0.380437,-0.6687 l -0.243713,-0.20155 0.146226,-0.17681 2.934112,2.42656 -0.146225,0.17681 q -0.512146,-0.4316 -0.805401,-0.50514 -0.288477,-0.0696 -0.491402,0.0201 -0.202924,0.0897 -0.681122,0.66791 l -3.367147,4.07143 q -0.328021,0.39664 -0.374075,0.60801 -0.02565,0.14777 0.0543,0.29436 0.07995,0.14659 0.705955,0.66431 l 0.47309,0.39125 q 0.745474,0.61652 1.137429,0.75559 0.391954,0.13907 0.869664,0.0674 0.481663,-0.0764 1.228113,-0.47304 z" />
        <path
           inkscape:connector-curvature="0"
           id="path2738"
           style="font-style:normal;font-variant:normal;font-weight:normal;font-stretch:normal;font-family:'Times New Roman';-inkscape-font-specification:'Times New Roman, ';fill:#00503f;fill-opacity:1;stroke-width:0.26458332"
           d="m 71.915499,207.25529 q 0.655773,0.60753 0.819051,1.18135 0.224533,0.79805 -0.197793,1.50647 -0.320715,0.53798 -0.956921,0.83012 -0.63303,0.28681 -1.366138,0.1602 -0.724607,-0.12875 -1.944372,-0.85592 l -3.40895,-2.03225 0.117489,-0.19708 0.271651,0.16195 q 0.452751,0.26991 0.821302,0.0998 0.233648,-0.1134 0.595642,-0.72062 l 2.78164,-4.666 q 0.400099,-0.67113 0.350419,-0.93899 -0.06802,-0.35821 -0.478155,-0.60271 l -0.271651,-0.16195 0.117489,-0.19708 3.12132,1.86078 q 0.873544,0.52076 1.324657,0.96296 0.684658,0.66806 0.813315,1.40896 0.131832,0.73556 -0.246039,1.36941 -0.32389,0.5433 -0.911338,0.77788 -0.584273,0.22924 -1.352618,0.0528 z m -2.619607,-1.95153 q 0.174852,0.15477 0.412495,0.32532 0.246145,0.1684 0.549755,0.3494 0.777667,0.4636 1.264937,0.53029 0.495772,0.0645 0.909906,-0.15785 0.414133,-0.22239 0.658638,-0.63253 0.377871,-0.63385 0.127934,-1.38928 -0.249936,-0.75544 -1.240662,-1.34606 -0.532649,-0.31754 -1.028626,-0.45439 z m -2.057652,3.45156 q 0.532137,0.51216 1.13403,0.87098 0.964094,0.57474 1.727316,0.44496 0.766398,-0.13511 1.147445,-0.77429 0.250855,-0.42079 0.25362,-0.94616 0.0028,-0.52538 -0.380539,-1.0571 -0.383302,-0.53173 -1.14499,-0.98581 -0.330242,-0.19687 -0.570958,-0.32594 -0.240716,-0.12906 -0.400408,-0.18817 z" />
        <path
           inkscape:connector-curvature="0"
           id="path2740"
           style="font-style:normal;font-variant:normal;font-weight:normal;font-stretch:normal;font-family:'Times New Roman';-inkscape-font-specification:'Times New Roman, ';fill:#00503f;fill-opacity:1;stroke-width:0.26458332"
           d="m 80.806528,207.26122 0.09246,-0.20999 2.724211,1.19942 -0.09246,0.20999 -0.289447,-0.12744 q -0.454035,-0.1999 -0.865498,0.0729 -0.196646,0.12346 -0.479009,0.76478 l -1.374331,3.1215 q -0.509751,1.15779 -1.024807,1.69666 -0.506881,0.5357 -1.38466,0.69805 -0.869604,0.15918 -2.027394,-0.35057 -1.259948,-0.55473 -1.720217,-1.2791 -0.460269,-0.72437 -0.407848,-1.58212 0.04078,-0.58507 0.652979,-1.97555 l 1.324355,-3.00799 q 0.312348,-0.70943 0.21116,-1.01823 -0.09551,-0.3063 -0.532521,-0.4987 l -0.289447,-0.12744 0.09246,-0.20999 3.325807,1.46428 -0.09246,0.21 -0.295123,-0.12994 q -0.476737,-0.2099 -0.813488,9.4e-4 -0.231842,0.14185 -0.516703,0.78885 l -1.476781,3.35418 q -0.197404,0.44836 -0.372824,1.06224 -0.169744,0.61638 -0.09651,1.03483 0.07324,0.41846 0.383737,0.80586 0.316177,0.3899 0.906423,0.64978 0.754833,0.33234 1.495684,0.26553 0.74085,-0.0668 1.181407,-0.48264 0.448732,-0.41901 0.988469,-1.6449 l 1.371832,-3.11582 q 0.317345,-0.72078 0.238394,-0.97236 -0.111395,-0.34717 -0.548404,-0.53958 z" />
        <path
           inkscape:connector-curvature="0"
           id="path2742"
           style="font-style:normal;font-variant:normal;font-weight:normal;font-stretch:normal;font-family:'Times New Roman';-inkscape-font-specification:'Times New Roman, ';fill:#00503f;fill-opacity:1;stroke-width:0.26458332"
           d="M 88.603964,218.45317 86.4537,217.8085 84.856322,213.22515 q -0.306499,-0.0789 -0.496578,-0.13593 -0.07722,-0.0232 -0.166319,-0.0499 -0.08732,-0.0326 -0.180576,-0.0671 l -0.701658,2.34035 q -0.227949,0.76031 -0.116837,0.99431 0.147361,0.32903 0.598797,0.46438 l 0.314818,0.0944 -0.06589,0.21978 -3.451115,-1.03468 0.06589,-0.21977 0.302938,0.0908 q 0.510836,0.15315 0.830343,-0.11359 0.179945,-0.14674 0.386525,-0.83578 l 1.560029,-5.2034 q 0.22795,-0.76031 0.116838,-0.99432 -0.153301,-0.33081 -0.610678,-0.46793 l -0.302938,-0.0908 0.06589,-0.21978 2.934339,0.87975 q 1.28303,0.38466 1.831918,0.75639 0.556609,0.36756 0.826974,0.9989 0.278085,0.62718 0.06972,1.32215 -0.222607,0.7425 -0.873523,1.14294 -0.644975,0.40223 -1.72838,0.32342 l 0.970435,2.80929 q 0.331601,0.96691 0.663101,1.35115 0.331499,0.38424 0.969464,0.65319 z m -4.478922,-5.85512 q 0.11286,0.0338 0.194238,0.0647 0.08316,0.0249 0.136619,0.041 1.152352,0.34549 1.884059,0.0211 0.737648,-0.32266 0.969159,-1.09485 0.226169,-0.75437 -0.10834,-1.3661 -0.326788,-0.61588 -1.104923,-0.84918 -0.344517,-0.10329 -0.966409,-0.16673 z" />
        <path
           inkscape:connector-curvature="0"
           id="path2744"
           style="font-style:normal;font-variant:normal;font-weight:normal;font-stretch:normal;font-family:'Times New Roman';-inkscape-font-specification:'Times New Roman, ';fill:#00503f;fill-opacity:1;stroke-width:0.26458332"
           d="m 92.536296,211.04965 -0.585979,3.27176 1.819004,0.32579 q 0.708069,0.12682 0.984391,-0.0442 0.367699,-0.22394 0.53114,-0.92545 l 0.22585,0.0405 -0.516012,2.8811 -0.22585,-0.0404 q 0.02277,-0.6196 -0.03207,-0.80582 -0.07161,-0.23332 -0.30001,-0.40022 -0.228401,-0.16691 -0.747245,-0.25983 l -1.819004,-0.32579 -0.488681,2.72851 q -0.09839,0.54936 -0.07142,0.68019 0.02806,0.12472 0.137022,0.21983 0.110056,0.089 0.451882,0.15023 l 1.40393,0.25145 q 0.701965,0.12572 1.036867,0.0849 0.334902,-0.0408 0.679279,-0.27523 0.446232,-0.31067 0.97965,-1.00262 l 0.244162,0.0437 -1.085877,1.94747 -6.378725,-1.14244 0.04045,-0.22585 0.292994,0.0525 q 0.292995,0.0525 0.580613,-0.0409 0.212821,-0.0627 0.31495,-0.24598 0.108232,-0.18221 0.216463,-0.78651 l 0.96315,-5.37766 q 0.141029,-0.78742 0.01512,-0.99897 -0.176015,-0.28352 -0.688755,-0.37535 l -0.292994,-0.0525 0.04045,-0.22585 6.378725,1.14245 -0.233133,1.8293 -0.238058,-0.0426 q -0.01121,-0.67609 -0.126183,-0.94868 -0.108871,-0.27149 -0.391115,-0.45434 -0.227763,-0.13529 -0.844271,-0.24571 z" />
        <path
           inkscape:connector-curvature="0"
           id="path2746"
           style="font-style:normal;font-variant:normal;font-weight:normal;font-stretch:normal;font-family:'Times New Roman';-inkscape-font-specification:'Times New Roman, ';fill:#00503f;fill-opacity:1;stroke-width:0.26458332"
           d="m 102.13405,217.34619 -3.25009,-0.18959 -0.64682,1.29158 q -0.23901,0.47678 -0.253094,0.71822 -0.0112,0.19191 0.159667,0.35095 0.177414,0.15322 0.78157,0.23195 l -0.01336,0.22905 -2.643407,-0.1542 0.01336,-0.22905 q 0.531622,-0.0622 0.695055,-0.20171 0.333057,-0.27874 0.769961,-1.16637 l 3.355948,-6.73651 0.21667,0.0126 2.51465,7.1535 q 0.30375,0.86251 0.57372,1.13294 0.27651,0.2646 0.78853,0.32552 l -0.0134,0.22906 -3.312,-0.1932 0.0134,-0.22906 q 0.50289,0.004 0.68453,-0.12778 0.18784,-0.13192 0.19975,-0.33621 0.0159,-0.27239 -0.19743,-0.87494 z m -0.14662,-0.46822 -1.22595,-3.47553 -1.658887,3.30725 z" />
        <path
           inkscape:connector-curvature="0"
           id="path2748"
           style="font-style:normal;font-variant:normal;font-weight:normal;font-stretch:normal;font-family:'Times New Roman';-inkscape-font-specification:'Times New Roman, ';fill:#00503f;fill-opacity:1;stroke-width:0.26458332"
           d="m 110.81901,211.76984 -0.016,-0.22889 2.96936,-0.20703 0.016,0.22889 -0.3155,0.022 q -0.49489,0.0345 -0.73199,0.46753 -0.11654,0.20083 -0.0678,0.89986 l 0.23723,3.40239 q 0.088,1.26197 -0.1169,1.97869 -0.19914,0.7101 -0.90036,1.26251 -0.69546,0.54579 -1.95743,0.63378 -1.37333,0.0958 -2.11795,-0.33098 -0.74462,-0.42673 -1.09762,-1.21022 -0.23635,-0.53677 -0.34203,-2.05238 l -0.2286,-3.27866 q -0.0539,-0.77327 -0.28725,-0.99943 -0.22715,-0.2266 -0.70349,-0.19338 l -0.31549,0.022 -0.016,-0.22888 3.62509,-0.25276 0.016,0.22889 -0.32168,0.0224 q -0.51964,0.0362 -0.71948,0.37962 -0.13913,0.23349 -0.09,0.93871 l 0.25492,3.65601 q 0.0341,0.48871 0.16467,1.11366 0.13679,0.62452 0.39645,0.96074 0.25966,0.33622 0.71484,0.53448 0.46136,0.19783 1.10472,0.15297 0.82276,-0.0574 1.44729,-0.46145 0.62452,-0.40408 0.82078,-0.97723 0.20201,-0.57976 0.10884,-1.91597 l -0.2368,-3.3962 q -0.0548,-0.78564 -0.24179,-0.97152 -0.26024,-0.25537 -0.73657,-0.22216 z" />
        <path
           inkscape:connector-curvature="0"
           id="path2750"
           style="font-style:normal;font-variant:normal;font-weight:normal;font-stretch:normal;font-family:'Times New Roman';-inkscape-font-specification:'Times New Roman, ';fill:#00503f;fill-opacity:1;stroke-width:0.26458332"
           d="m 120.12371,209.76316 q 1.59023,-0.38894 3.04892,0.53746 1.46324,0.91891 1.90522,2.726 0.45524,1.86129 -0.41882,3.3774 -0.87405,1.51611 -2.5426,1.92421 -1.68661,0.41251 -3.1303,-0.50479 -1.43767,-0.91878 -1.90323,-2.82224 -0.47587,-1.94563 0.54878,-3.49857 0.88974,-1.34758 2.49203,-1.73947 z m -0.007,0.46772 q -1.0963,0.26813 -1.56001,1.24338 -0.57772,1.21381 -0.10038,3.16546 0.48913,1.99984 1.6082,2.86887 0.85694,0.65862 1.93516,0.39491 1.15051,-0.2814 1.67793,-1.36161 0.53343,-1.08167 0.0605,-3.01526 -0.5127,-2.09622 -1.58987,-2.92442 -0.86296,-0.65715 -2.03154,-0.37133 z" />
        <path
           inkscape:connector-curvature="0"
           id="path2752"
           style="font-style:normal;font-variant:normal;font-weight:normal;font-stretch:normal;font-family:'Times New Roman';-inkscape-font-specification:'Times New Roman, ';fill:#00503f;fill-opacity:1;stroke-width:0.26458332"
           d="m 126.24858,208.62452 1.14368,3.10105 1.43707,-0.53 q 0.49454,-0.18239 0.64205,-0.48134 0.15119,-0.30692 -0.0114,-0.98062 l 0.21527,-0.0794 0.98489,2.67051 -0.21527,0.0794 q -0.17533,-0.45748 -0.37109,-0.62984 -0.18993,-0.1745 -0.43219,-0.20413 -0.23858,-0.0376 -0.63422,0.10832 l -1.43707,0.53 0.91408,2.47851 q 0.22101,0.59927 0.36746,0.76337 0.11182,0.124 0.33663,0.16006 0.30749,0.0452 0.58676,-0.0578 l 0.28509,-0.10514 0.0794,0.21527 -3.38614,1.24881 -0.0794,-0.21527 0.27927,-0.10299 q 0.48872,-0.18024 0.60467,-0.54687 0.071,-0.23768 -0.19081,-0.94749 l -1.87966,-5.09666 q -0.22101,-0.59926 -0.36746,-0.76337 -0.11182,-0.12399 -0.33081,-0.1622 -0.30167,-0.0474 -0.58676,0.0578 l -0.27927,0.103 -0.0794,-0.21527 5.87047,-2.16504 0.71506,1.7059 -0.20363,0.0751 q -0.35512,-0.49693 -0.65316,-0.67783 -0.29438,-0.18886 -0.63402,-0.19579 -0.33382,-0.009 -0.95053,0.21837 z" />
        <path
           inkscape:connector-curvature="0"
           id="path2754"
           style="font-style:normal;font-variant:normal;font-weight:normal;font-stretch:normal;font-family:'Times New Roman';-inkscape-font-specification:'Times New Roman, ';fill:#00503f;fill-opacity:1;stroke-width:0.26458332"
           d="m 138.6197,202.0242 1.55658,2.4055 -0.16804,0.0934 q -0.95956,-0.93531 -1.85702,-1.08219 -0.89745,-0.14689 -1.77016,0.33805 -0.73177,0.40662 -1.11478,1.10895 -0.38602,0.69691 -0.27571,1.69975 0.11573,0.99982 0.78741,2.2086 0.55422,0.99738 1.28065,1.55144 0.72644,0.55407 1.58293,0.58893 0.86191,0.0318 1.68583,-0.42599 0.71551,-0.39758 1.09431,-1.00535 0.37579,-0.61318 0.52565,-1.88829 l 0.22828,0.015 q -0.008,1.28834 -0.4919,2.1533 -0.48418,0.86496 -1.49782,1.42821 -1.82672,1.01506 -3.58253,0.21715 -1.30827,-0.59256 -2.0673,-1.95853 -0.61145,-1.10037 -0.63022,-2.29596 -0.0188,-1.19559 0.56297,-2.17861 0.58415,-0.99145 1.60863,-1.56073 0.79682,-0.44277 1.78883,-0.48321 0.29392,-0.007 0.39149,-0.0615 0.14636,-0.0813 0.19754,-0.24455 0.0596,-0.22467 -0.0253,-0.51799 z" />
        <path
           inkscape:connector-curvature="0"
           id="path2756"
           style="font-style:normal;font-variant:normal;font-weight:normal;font-stretch:normal;font-family:'Times New Roman';-inkscape-font-specification:'Times New Roman, ';fill:#00503f;fill-opacity:1;stroke-width:0.26458332"
           d="m 142.22643,199.46236 q 1.32191,-0.96576 3.02359,-0.66533 1.70304,0.29177 2.80049,1.79393 1.13037,1.54724 0.90022,3.28206 -0.23014,1.73481 -1.61714,2.74813 -1.40203,1.02428 -3.08639,0.72655 -1.67934,-0.30139 -2.83532,-1.88367 -1.18159,-1.61734 -0.82626,-3.44361 0.30888,-1.58499 1.64081,-2.55806 z m 0.1719,0.43503 q -0.91131,0.66579 -0.96825,1.74416 -0.0714,1.34239 1.11382,2.96473 1.21451,1.6624 2.58035,2.03924 1.0433,0.28224 1.93959,-0.37257 0.95638,-0.69871 1.03221,-1.8984 0.0808,-1.20335 -1.09343,-2.81067 -1.27304,-1.74252 -2.58458,-2.09759 -1.0483,-0.27858 -2.01971,0.4311 z" />
        <path
           inkscape:connector-curvature="0"
           id="path2758"
           style="font-style:normal;font-variant:normal;font-weight:normal;font-stretch:normal;font-family:'Times New Roman';-inkscape-font-specification:'Times New Roman, ';fill:#00503f;fill-opacity:1;stroke-width:0.26458332"
           d="m 150.70674,192.11998 1.98388,1.77639 -0.15748,0.14936 q -0.92124,-0.49374 -1.64484,-0.49974 -1.0437,-0.0101 -1.89859,0.80069 -1.16535,1.10523 -0.89798,2.6037 0.22981,1.2606 1.24969,2.33596 0.82785,0.87289 1.84808,1.27275 1.02022,0.39986 1.88469,0.22097 0.86471,-0.18765 1.44064,-0.73386 0.33746,-0.32005 0.57134,-0.70425 0.23388,-0.3842 0.36845,-0.82805 l -1.67278,-1.76377 q -0.43526,-0.45894 -0.63954,-0.53015 -0.20404,-0.08 -0.4208,-0.0111 -0.21652,0.0601 -0.58548,0.40998 l -0.16215,-0.17098 2.36219,-2.24032 0.16216,0.17097 -0.11249,0.10669 q -0.35095,0.33284 -0.25954,0.69057 0.0679,0.25182 0.53304,0.74226 l 1.77092,1.86726 q -0.25286,0.7697 -0.63304,1.37812 -0.38018,0.60842 -0.9966,1.19304 -1.76828,1.67704 -3.76152,1.41371 -1.49492,-0.19749 -2.54894,-1.30885 -0.76385,-0.80539 -1.07673,-1.91029 -0.37318,-1.31265 -0.0204,-2.54466 0.29916,-1.02728 1.21254,-1.89354 0.33296,-0.31578 0.65413,-0.51782 0.32567,-0.20631 1.00007,-0.49551 0.34158,-0.14448 0.42706,-0.22556 0.0855,-0.0811 0.0714,-0.21304 -0.0138,-0.14073 -0.21795,-0.383 z" />
        <path
           inkscape:connector-curvature="0"
           id="path2760"
           style="font-style:normal;font-variant:normal;font-weight:normal;font-stretch:normal;font-family:'Times New Roman';-inkscape-font-specification:'Times New Roman, ';fill:#00503f;fill-opacity:1;stroke-width:0.26458332"
           d="m 151.01632,192.21285 1.44283,-1.76803 8.13638,0.005 -3.75706,-3.06601 q -0.60055,-0.49009 -0.85927,-0.4771 -0.34685,0.0131 -0.66051,0.39744 l -0.18428,0.22581 -0.17776,-0.14507 1.85058,-2.26768 0.17777,0.14506 -0.1882,0.23062 q -0.33718,0.41318 -0.2285,0.79001 0.0675,0.23116 0.61519,0.67813 l 5.49146,4.48138 -0.14115,0.17296 -8.75156,0.0137 4.0117,3.27381 q 0.60055,0.49009 0.85535,0.48191 0.35077,-0.0179 0.66051,-0.39745 l 0.18819,-0.23061 0.17776,0.14507 -1.85058,2.26769 -0.17776,-0.14507 0.18427,-0.22581 q 0.34111,-0.41798 0.23242,-0.79482 -0.0675,-0.23116 -0.61519,-0.67812 l -4.53057,-3.69725 q -0.56282,0.0129 -0.79006,0.0756 -0.22332,0.0579 -0.54593,0.26684 -0.15694,0.10404 -0.38826,0.3875 z" />
        <path
           inkscape:connector-curvature="0"
           id="path2762"
           style="font-style:normal;font-variant:normal;font-weight:normal;font-stretch:normal;font-family:'Times New Roman';-inkscape-font-specification:'Times New Roman, ';fill:#00503f;fill-opacity:1;stroke-width:0.26458332"
           d="m 165.34504,186.83549 0.19047,0.12793 -2.00882,2.99088 -0.19047,-0.12792 0.16596,-0.2471 q 0.29044,-0.43242 0.16958,-0.79745 -0.0817,-0.23419 -0.70979,-0.65601 l -4.50949,-3.02879 q -0.53022,-0.35613 -0.74505,-0.4033 -0.16327,-0.035 -0.36311,0.0624 -0.27568,0.14353 -0.44164,0.39062 l -0.16596,0.2471 -0.19047,-0.12793 2.00882,-2.99088 0.19047,0.12792 -0.16942,0.25225 q -0.28697,0.42727 -0.16612,0.7923 0.0783,0.23934 0.70633,0.66116 l 4.50949,3.02879 q 0.53022,0.35612 0.74505,0.4033 0.16327,0.035 0.36657,-0.0675 0.27222,-0.13838 0.43819,-0.38547 z" />
        <path
           inkscape:connector-curvature="0"
           id="path2764"
           style="font-style:normal;font-variant:normal;font-weight:normal;font-stretch:normal;font-family:'Times New Roman';-inkscape-font-specification:'Times New Roman, ';fill:#00503f;fill-opacity:1;stroke-width:0.26458332"
           d="m 162.00869,176.21995 1.76808,0.87819 -0.11465,0.20587 q -0.48827,-0.19385 -0.74064,-0.19953 -0.40775,-0.007 -0.71092,0.19322 -0.30557,0.19182 -0.55901,0.64691 l -0.57627,1.03478 5.61273,3.12574 q 0.67721,0.37715 0.92663,0.3244 0.34219,-0.0791 0.58054,-0.50715 l 0.14181,-0.25463 0.20045,0.11163 -1.73485,3.11518 -0.20045,-0.11164 0.14482,-0.26005 q 0.25947,-0.46592 0.0864,-0.81785 -0.10699,-0.21574 -0.72461,-0.55969 l -5.61273,-3.12575 -0.49179,0.88309 q -0.28663,0.51468 -0.33147,0.77363 -0.054,0.33904 0.12697,0.70242 0.18092,0.36338 0.65823,0.67888 l -0.11465,0.20588 -1.67456,-1.04613 z" />
        <path
           inkscape:connector-curvature="0"
           id="path2766"
           style="font-style:normal;font-variant:normal;font-weight:normal;font-stretch:normal;font-family:'Times New Roman';-inkscape-font-specification:'Times New Roman, ';fill:#00503f;fill-opacity:1;stroke-width:0.26458332"
           d="m 170.89881,176.24647 0.20907,0.0945 -1.48427,3.28293 -0.20907,-0.0945 0.12262,-0.27122 q 0.2146,-0.47464 0.0348,-0.81454 -0.1195,-0.21737 -0.80886,-0.52904 l -4.94984,-2.23791 q -0.582,-0.26313 -0.80167,-0.27398 -0.16681,-0.007 -0.34772,0.12182 -0.24802,0.18731 -0.37064,0.45853 l -0.12263,0.27123 -0.20906,-0.0945 1.48427,-3.28293 0.20907,0.0945 -0.12518,0.27687 q -0.21204,0.469 -0.0322,0.80889 0.11694,0.22302 0.8063,0.53469 l 4.94984,2.23791 q 0.582,0.26313 0.80168,0.27398 0.16681,0.007 0.35026,-0.12747 0.24547,-0.18166 0.36809,-0.45288 z" />
        <path
           inkscape:connector-curvature="0"
           id="path2768"
           style="font-style:normal;font-variant:normal;font-weight:normal;font-stretch:normal;font-family:'Times New Roman';-inkscape-font-specification:'Times New Roman, ';fill:#00503f;fill-opacity:1;stroke-width:0.26458332"
           d="m 164.72481,168.89835 q 0.53186,-1.5483 2.0995,-2.27528 1.56379,-0.73485 3.32323,-0.13047 1.81223,0.62251 2.6158,2.17713 0.80357,1.55461 0.24553,3.17916 -0.56409,1.64215 -2.11597,2.36142 -1.54987,0.71341 -3.40315,0.0768 -1.89433,-0.65071 -2.64754,-2.35195 -0.65328,-1.47676 -0.1174,-3.0368 z m 0.38985,0.2585 q -0.36665,1.0674 0.20349,1.98449 0.70929,1.14194 2.60948,1.79467 1.94712,0.66884 3.28299,0.19665 1.0172,-0.36527 1.37782,-1.41507 0.38479,-1.12018 -0.23926,-2.14759 -0.62203,-1.03328 -2.50463,-1.67996 -2.04095,-0.70108 -3.31983,-0.2421 -1.01922,0.37114 -1.41006,1.50891 z" />
        <path
           inkscape:connector-curvature="0"
           id="path2770"
           style="font-style:normal;font-variant:normal;font-weight:normal;font-stretch:normal;font-family:'Times New Roman';-inkscape-font-specification:'Times New Roman, ';fill:#00503f;fill-opacity:1;stroke-width:0.26458332"
           d="m 166.0647,165.86917 0.45815,-2.23557 7.21027,-3.76995 -4.75058,-0.97358 q -0.75936,-0.15562 -0.98254,-0.0241 -0.30121,0.17249 -0.40081,0.65848 l -0.0585,0.28552 -0.22477,-0.0461 0.58763,-2.86735 0.22477,0.0461 -0.0598,0.2916 q -0.10706,0.52244 0.16401,0.80587 0.16701,0.17349 0.85955,0.31542 l 6.94362,1.42301 -0.0448,0.2187 -7.74681,4.07145 5.07255,1.03956 q 0.75936,0.15562 0.9813,0.0302 0.30246,-0.17855 0.40081,-0.65847 l 0.0598,-0.2916 0.22477,0.0461 -0.58763,2.86736 -0.22477,-0.0461 0.0585,-0.28552 q 0.10832,-0.52852 -0.16276,-0.81195 -0.16701,-0.17349 -0.85955,-0.31542 l -5.72864,-1.17401 q -0.49262,0.27251 -0.66486,0.43345 -0.171,0.15485 -0.35988,0.48962 -0.0908,0.16497 -0.16423,0.52339 z" />
      </g>
      <g
         id="text2680"
         style="font-style:normal;font-variant:normal;font-weight:normal;font-stretch:normal;font-size:12.69999981px;line-height:1.25;font-family:Arial;-inkscape-font-specification:Arial;letter-spacing:0px;word-spacing:0px;display:inline;fill:#00503f;fill-opacity:1;stroke:none;stroke-width:0.26458332"
         aria-label="PROJECT HYPERSKELION">
        <path
           inkscape:connector-curvature="0"
           id="path2685"
           style="font-style:normal;font-variant:normal;font-weight:normal;font-stretch:normal;font-family:'Times New Roman';-inkscape-font-specification:'Times New Roman, ';fill:#00503f;fill-opacity:1;stroke-width:0.26458332"
           d="m 43.769925,122.12129 2.236595,0.99875 q 0.72477,0.32365 0.971098,0.24349 0.345222,-0.10391 0.539916,-0.53991 l 0.131482,-0.29443 0.209504,0.0935 -1.469054,3.28978 -0.209504,-0.0936 0.128953,-0.28877 q 0.217451,-0.48696 -0.0061,-0.83806 -0.124961,-0.19163 -0.781784,-0.48493 l -4.960145,-2.21496 q -0.72477,-0.32365 -0.96857,-0.24915 -0.347751,0.10958 -0.542444,0.54557 l -0.128953,0.28878 -0.209504,-0.0936 1.25666,-2.81414 q 0.460185,-1.03054 0.940843,-1.52899 0.474996,-0.50099 1.160989,-0.68363 0.685993,-0.18265 1.376789,0.12583 0.939937,0.41972 1.250678,1.30554 0.31327,0.88015 -0.192428,2.0126 -0.123896,0.27745 -0.307656,0.5825 -0.18376,0.30505 -0.427383,0.6377 z m -0.32275,-0.14412 q 0.190633,-0.27482 0.322613,-0.49433 0.131979,-0.21951 0.205305,-0.38372 0.262963,-0.58887 -3.81e-4,-1.21582 -0.266478,-0.63514 -0.991248,-0.95879 -0.49828,-0.22251 -1.013976,-0.2083 -0.521357,0.0117 -0.897742,0.29183 -0.382046,0.27763 -0.59444,0.75326 -0.128953,0.28877 -0.223649,0.7898 z" />
        <path
           inkscape:connector-curvature="0"
           id="path2687"
           style="font-style:normal;font-variant:normal;font-weight:normal;font-stretch:normal;font-family:'Times New Roman';-inkscape-font-specification:'Times New Roman, ';fill:#00503f;fill-opacity:1;stroke-width:0.26458332"
           d="m 53.589634,112.27522 -1.161156,1.92119 -4.837021,0.40235 q -0.152974,0.27708 -0.255618,0.44691 -0.0417,0.069 -0.08981,0.1486 -0.05342,0.0764 -0.11005,0.15811 l 2.091014,1.26379 q 0.679314,0.41058 0.933648,0.36141 0.355404,-0.0605 0.599182,-0.46387 l 0.170004,-0.28128 0.196364,0.11868 -1.863623,3.08345 -0.196364,-0.11868 0.163588,-0.27067 q 0.275855,-0.45641 0.09734,-0.8324 -0.09716,-0.21089 -0.71279,-0.58297 l -4.649057,-2.80987 q -0.679314,-0.41057 -0.933648,-0.36141 -0.358612,0.0658 -0.605598,0.47449 l -0.163588,0.27067 -0.196364,-0.11868 1.58456,-2.62173 q 0.692844,-1.14634 1.189849,-1.58503 0.494906,-0.4472 1.173753,-0.55136 0.676748,-0.11267 1.297684,0.26262 0.663393,0.40095 0.888625,1.13123 0.228441,0.72498 -0.118389,1.75439 l 2.962609,-0.23824 q 1.019088,-0.0797 1.473928,-0.30472 0.454839,-0.22506 0.87457,-0.77566 z m -6.788008,2.87508 q 0.06094,-0.10084 0.111158,-0.17193 0.04491,-0.0743 0.07377,-0.12207 0.622277,-1.02958 0.490823,-1.81912 -0.128247,-0.79485 -0.818175,-1.21184 -0.674007,-0.40736 -1.34988,-0.23619 -0.677973,0.16265 -1.09817,0.85789 -0.186042,0.30781 -0.402759,0.89416 z" />
        <path
           inkscape:connector-curvature="0"
           id="path2689"
           style="font-style:normal;font-variant:normal;font-weight:normal;font-stretch:normal;font-family:'Times New Roman';-inkscape-font-specification:'Times New Roman, ';fill:#00503f;fill-opacity:1;stroke-width:0.26458332"
           d="m 49.807099,103.29368 q 1.036183,-1.26745 2.758693,-1.40513 1.721634,-0.14641 3.161928,1.03108 1.483503,1.2128 1.69754,2.94968 0.214038,1.73688 -0.873169,3.06675 -1.098982,1.34427 -2.804039,1.4802 -1.701133,0.13112 -3.218243,-1.10916 -1.550717,-1.26775 -1.666631,-3.12465 -0.100111,-1.61171 0.943921,-2.88877 z m 0.275898,0.37774 q -0.714338,0.87378 -0.497948,1.93176 0.268848,1.31712 1.824366,2.5888 1.593926,1.30308 3.010642,1.3239 1.080751,0.0105 1.783315,-0.84889 0.749662,-0.91699 0.521008,-2.09712 -0.224729,-1.18494 -1.765844,-2.44485 -1.670741,-1.36587 -3.029425,-1.3793 -1.084676,-0.006 -1.846114,0.9257 z" />
        <path
           inkscape:connector-curvature="0"
           id="path2691"
           style="font-style:normal;font-variant:normal;font-weight:normal;font-stretch:normal;font-family:'Times New Roman';-inkscape-font-specification:'Times New Roman, ';fill:#00503f;fill-opacity:1;stroke-width:0.26458332"
           d="m 54.628366,98.561661 -0.160085,-0.164369 2.581027,-2.513771 0.160085,0.164368 -0.217677,0.212005 q -0.368718,0.35911 -0.325524,0.741199 0.03184,0.245996 0.559684,0.787967 l 2.868555,2.9453 q 0.661975,0.67969 0.921963,1.24882 0.264431,0.56481 0.207346,1.235 -0.06141,0.66575 -0.576728,1.16764 -0.417585,0.4067 -0.856499,0.43599 -0.44324,0.0249 -0.702838,-0.2417 -0.212005,-0.21767 -0.209111,-0.4369 0.01247,-0.28049 0.207939,-0.47086 0.142156,-0.13846 0.344075,-0.15333 0.206361,-0.0192 0.773338,0.21631 0.335812,0.14038 0.495738,-0.0154 0.119945,-0.11682 0.07934,-0.36293 -0.03616,-0.25044 -0.399598,-0.6236 l -4.006459,-4.113647 q -0.445643,-0.457566 -0.646173,-0.547919 -0.15259,-0.06779 -0.372625,-0.0093 -0.294862,0.07943 -0.508097,0.287106 z" />
        <path
           inkscape:connector-curvature="0"
           id="path2693"
           style="font-style:normal;font-variant:normal;font-weight:normal;font-stretch:normal;font-family:'Times New Roman';-inkscape-font-specification:'Times New Roman, ';fill:#00503f;fill-opacity:1;stroke-width:0.26458332"
           d="m 60.060122,93.925148 2.065867,2.603849 1.447662,-1.14856 q 0.563519,-0.447091 0.61808,-0.767433 0.07532,-0.423885 -0.342625,-1.01053 l 0.179743,-0.142606 1.819196,2.292941 -0.179743,0.142607 q -0.44958,-0.426976 -0.625509,-0.509039 -0.222341,-0.100651 -0.4986,-0.03979 -0.27626,0.06086 -0.689184,0.388474 l -1.447662,1.14856 1.72284,2.171494 q 0.346881,0.437213 0.462829,0.503538 0.112094,0.06147 0.255503,0.04268 0.139555,-0.02365 0.411599,-0.239484 l 1.117323,-0.886473 q 0.558662,-0.443236 0.749606,-0.721383 0.190945,-0.278147 0.242977,-0.691472 0.06223,-0.540154 -0.103785,-1.397919 l 0.194318,-0.15417 0.74206,2.10264 -5.076534,4.027668 -0.142606,-0.17974 0.23318,-0.185 q 0.233181,-0.18501 0.353424,-0.46247 0.09379,-0.20106 0.02389,-0.39891 -0.06504,-0.20171 -0.446608,-0.682644 l -3.395576,-4.279833 q -0.497195,-0.626673 -0.739128,-0.6722 -0.329055,-0.05557 -0.737121,0.26819 l -0.23318,0.185003 -0.142607,-0.179743 5.076534,-4.027669 1.217575,1.38499 -0.18946,0.150315 q -0.514419,-0.438859 -0.794894,-0.532966 -0.275617,-0.09796 -0.599452,-0.0073 -0.252131,0.0813 -0.742781,0.470578 z" />
        <path
           inkscape:connector-curvature="0"
           id="path2695"
           style="font-style:normal;font-variant:normal;font-weight:normal;font-stretch:normal;font-family:'Times New Roman';-inkscape-font-specification:'Times New Roman, ';fill:#00503f;fill-opacity:1;stroke-width:0.26458332"
           d="m 71.120136,85.640731 1.63809,2.350747 -0.164739,0.09908 q -0.991047,-0.901878 -1.893009,-1.017927 -0.901962,-0.116049 -1.75754,0.398505 -0.717411,0.431459 -1.07613,1.146498 -0.361915,0.709725 -0.217308,1.708194 0.149921,0.995274 0.862626,2.18033 0.588062,0.977803 1.333056,1.50665 0.744993,0.528847 1.602174,0.534339 0.862495,0.0023 1.670246,-0.483494 0.701467,-0.42187 1.059221,-1.042258 0.354558,-0.625701 0.460644,-1.905193 l 0.228658,0.0072 q 0.03643,1.287852 -0.41783,2.168895 -0.454262,0.881044 -1.448008,1.478693 -1.790868,1.077048 -3.572983,0.339769 -1.327807,-0.547386 -2.133196,-1.886551 -0.648785,-1.078773 -0.708516,-2.273013 -0.05973,-1.194241 0.487993,-2.196619 0.549841,-1.010888 1.554215,-1.61493 0.78118,-0.46981 1.771215,-0.544218 0.293506,-0.01732 0.38916,-0.07485 0.143482,-0.08629 0.189042,-0.25118 0.05188,-0.226578 -0.04308,-0.516813 z" />
        <path
           inkscape:connector-curvature="0"
           id="path2697"
           style="font-style:normal;font-variant:normal;font-weight:normal;font-stretch:normal;font-family:'Times New Roman';-inkscape-font-specification:'Times New Roman, ';fill:#00503f;fill-opacity:1;stroke-width:0.26458332"
           d="m 79.634242,81.945887 0.879189,1.767584 -0.215697,0.09489 q -0.272186,-0.449336 -0.469926,-0.606237 -0.320789,-0.251814 -0.683372,-0.275228 -0.359403,-0.03159 -0.836206,0.178161 l -1.084159,0.476926 2.586891,5.880569 q 0.312125,0.709528 0.54279,0.818072 0.32057,0.143516 0.768992,-0.05375 l 0.266783,-0.117359 0.09239,0.21002 -3.26383,1.435775 -0.09239,-0.210021 0.272459,-0.119856 q 0.488155,-0.214741 0.562656,-0.599797 0.04497,-0.236573 -0.239685,-0.883663 l -2.586891,-5.880569 -0.925225,0.407011 q -0.539241,0.237215 -0.731332,0.416562 -0.247721,0.237692 -0.322903,0.636597 -0.07518,0.398906 0.114808,0.938597 l -0.215697,0.09489 -0.703226,-1.844991 z" />
        <path
           inkscape:connector-curvature="0"
           id="path2699"
           style="font-style:normal;font-variant:normal;font-weight:normal;font-stretch:normal;font-family:'Times New Roman';-inkscape-font-specification:'Times New Roman, ';fill:#00503f;fill-opacity:1;stroke-width:0.26458332"
           d="M 87.70826,83.493283 91.510887,82.597388 90.95913,80.255452 Q 90.811236,79.627717 90.685841,79.447018 90.58993,79.310341 90.371184,79.2472 90.07751,79.163487 89.787786,79.231745 l -0.289724,0.06826 -0.05262,-0.223329 3.500832,-0.824792 0.05262,0.223328 -0.289724,0.06826 q -0.289724,0.06826 -0.516561,0.268233 -0.170397,0.142081 -0.1959,0.358331 -0.02089,0.208792 0.121317,0.812383 l 1.244298,5.281427 q 0.146472,0.6217 0.271867,0.802398 0.09591,0.136678 0.308621,0.20124 0.29971,0.08229 0.589434,0.01403 l 0.289724,-0.06826 0.05262,0.223328 -3.500832,0.824793 -0.05262,-0.223329 0.289724,-0.06826 q 0.500981,-0.11803 0.660665,-0.467828 0.105392,-0.228701 -0.0681,-0.965083 l -0.587309,-2.492834 -3.802627,0.895896 0.587309,2.492833 q 0.146472,0.6217 0.271866,0.802398 0.09591,0.136677 0.314657,0.199818 0.293674,0.08371 0.583398,0.01546 l 0.29576,-0.06968 0.05262,0.223329 -3.506867,0.826215 -0.05262,-0.223329 0.289724,-0.06826 q 0.507017,-0.119453 0.666701,-0.469251 0.09936,-0.227278 -0.07413,-0.96366 L 85.99761,81.424383 q -0.147894,-0.627735 -0.273288,-0.808434 -0.09591,-0.136677 -0.308621,-0.20124 -0.29971,-0.08229 -0.589434,-0.01403 l -0.289724,0.06826 -0.05262,-0.223329 3.506867,-0.826215 0.05262,0.223329 -0.295759,0.06968 q -0.289724,0.06826 -0.516562,0.268233 -0.16436,0.140659 -0.189863,0.356909 -0.02693,0.210214 0.11528,0.813805 z" />
        <path
           inkscape:connector-curvature="0"
           id="path2701"
           style="font-style:normal;font-variant:normal;font-weight:normal;font-stretch:normal;font-family:'Times New Roman';-inkscape-font-specification:'Times New Roman, ';fill:#00503f;fill-opacity:1;stroke-width:0.26458332"
           d="m 100.46778,77.480097 2.92259,-0.248709 0.0194,0.228617 -0.16065,0.01367 q -0.16065,0.01367 -0.4575,0.182075 -0.29684,0.168404 -0.52757,0.455652 -0.23072,0.287249 -0.55045,0.918145 l -1.749683,3.354043 0.178773,2.100805 q 0.0657,0.772355 0.25504,0.949176 0.25688,0.23953 0.76354,0.196414 l 0.27187,-0.02314 0.0195,0.228617 -3.559015,0.302868 -0.01946,-0.228617 0.296584,-0.02524 q 0.53138,-0.04522 0.726476,-0.385449 0.119109,-0.20929 0.05917,-0.913678 L 98.78762,82.601945 96.190431,79.287966 q -0.460385,-0.58318 -0.621822,-0.725032 -0.155259,-0.142377 -0.630896,-0.319726 -0.128835,-0.05127 -0.363631,-0.03129 l -0.01946,-0.228617 3.583727,-0.304971 0.01945,0.228617 -0.185365,0.01578 q -0.290406,0.02471 -0.525992,0.18168 -0.229406,0.156441 -0.206271,0.42831 0.01893,0.222438 0.445265,0.771174 l 1.978391,2.551348 1.423783,-2.722621 q 0.3213,-0.612359 0.29712,-0.896586 -0.0147,-0.173007 -0.11898,-0.301055 -0.0981,-0.128573 -0.27121,-0.188522 -0.17366,-0.06613 -0.50732,-0.03773 z" />
        <path
           inkscape:connector-curvature="0"
           id="path2703"
           style="font-style:normal;font-variant:normal;font-weight:normal;font-stretch:normal;font-family:'Times New Roman';-inkscape-font-specification:'Times New Roman, ';fill:#00503f;fill-opacity:1;stroke-width:0.26458332"
           d="m 107.0883,81.8461 -0.11123,2.446936 q -0.0361,0.792931 0.12868,0.992854 0.22301,0.283271 0.70001,0.304955 l 0.32212,0.01464 -0.0104,0.229207 -3.59916,-0.163614 0.0104,-0.229206 0.31593,0.01436 q 0.53275,0.02422 0.77773,-0.31227 0.13263,-0.186406 0.16529,-0.905 l 0.24669,-5.426622 q 0.036,-0.792931 -0.12248,-0.992573 -0.22921,-0.283552 -0.70621,-0.305236 l -0.31593,-0.01436 0.0104,-0.229207 3.0788,0.139959 q 1.12745,0.05125 1.7672,0.316223 0.64003,0.258775 1.06099,0.830386 0.42096,0.57161 0.38661,1.327373 -0.0468,1.028332 -0.75746,1.641612 -0.70452,0.613561 -1.94347,0.55724 -0.30355,-0.0138 -0.65468,-0.07321 -0.35113,-0.05942 -0.74985,-0.164446 z m 0.0161,-0.353102 q 0.3255,0.07687 0.57808,0.119392 0.25258,0.04252 0.43223,0.05069 0.64425,0.02929 1.13139,-0.445174 0.49361,-0.480375 0.52966,-1.273306 0.0248,-0.54514 -0.17711,-1.019886 -0.20161,-0.480941 -0.60005,-0.728734 -0.39815,-0.253987 -0.91851,-0.277642 -0.31594,-0.01436 -0.81687,0.08081 z" />
        <path
           inkscape:connector-curvature="0"
           id="path2705"
           style="font-style:normal;font-variant:normal;font-weight:normal;font-stretch:normal;font-family:'Times New Roman';-inkscape-font-specification:'Times New Roman, ';fill:#00503f;fill-opacity:1;stroke-width:0.26458332"
           d="m 115.30069,78.555221 -0.54427,3.278964 1.82301,0.302596 q 0.70962,0.117788 0.98374,-0.05672 0.36482,-0.228601 0.51932,-0.932136 l 0.22634,0.03757 -0.47928,2.887446 -0.22634,-0.03757 q 0.0149,-0.619846 -0.0423,-0.805351 -0.0746,-0.232389 -0.30509,-0.396371 -0.2305,-0.163981 -0.75049,-0.250292 l -1.82301,-0.302595 -0.45389,2.734509 q -0.0914,0.550573 -0.0628,0.681045 0.0297,0.124356 0.13982,0.218074 0.11118,0.0876 0.45375,0.144464 l 1.40702,0.233547 q 0.70351,0.116773 1.03787,0.0717 0.33435,-0.04508 0.67571,-0.283858 0.44224,-0.316327 0.96681,-1.015009 l 0.2447,0.04062 -1.06099,1.961136 -6.39276,-1.061115 0.0376,-0.226346 0.29364,0.04874 q 0.29364,0.04874 0.58005,-0.0483 0.212,-0.06539 0.31179,-0.249976 0.1059,-0.183574 0.20643,-0.789204 l 0.89458,-5.389492 q 0.13099,-0.789153 0.002,-0.999078 -0.17961,-0.281254 -0.69348,-0.36655 l -0.29364,-0.04874 0.0376,-0.226346 6.39276,1.061114 -0.20982,1.83212 -0.23858,-0.0396 q -0.0198,-0.675893 -0.13825,-0.946993 -0.11232,-0.270084 -0.39687,-0.449322 -0.22947,-0.132379 -0.84734,-0.234937 z" />
        <path
           inkscape:connector-curvature="0"
           id="path2707"
           style="font-style:normal;font-variant:normal;font-weight:normal;font-stretch:normal;font-family:'Times New Roman';-inkscape-font-specification:'Times New Roman, ';fill:#00503f;fill-opacity:1;stroke-width:0.26458332"
           d="m 127.26999,89.702191 -2.14859,-0.650243 -1.58549,-4.587472 q -0.30629,-0.07974 -0.49622,-0.137218 -0.0772,-0.02335 -0.16619,-0.0503 -0.0872,-0.03288 -0.1804,-0.06755 l -0.70773,2.338515 q -0.22992,0.759721 -0.11941,0.994011 0.14651,0.329412 0.59759,0.465927 l 0.31457,0.0952 -0.0665,0.219607 -3.44842,-1.043622 0.0665,-0.219607 0.3027,0.09161 q 0.51044,0.154477 0.83064,-0.111439 0.18032,-0.146274 0.38869,-0.834771 l 1.57351,-5.199339 q 0.22992,-0.759721 0.11942,-0.994011 -0.15244,-0.331208 -0.60946,-0.469519 l -0.3027,-0.09161 0.0665,-0.219607 2.93204,0.887349 q 1.28203,0.38799 1.82996,0.761138 0.55565,0.369009 0.82438,1.001045 0.27645,0.627896 0.0663,1.322329 -0.22453,0.741915 -0.87648,1.140671 -0.64602,0.400553 -1.72921,0.318936 l 0.96314,2.81179 q 0.3291,0.967773 0.6596,1.352868 0.3305,0.385096 0.96777,0.655703 z m -4.46373,-5.866707 q 0.11277,0.03413 0.19407,0.06521 0.0831,0.02515 0.13651,0.04131 1.15145,0.348473 1.884,0.02594 0.73848,-0.320738 0.97199,-1.09233 0.22813,-0.753785 -0.10479,-1.366376 -0.32519,-0.616729 -1.10272,-0.852038 -0.34425,-0.104182 -0.96597,-0.16924 z" />
        <path
           inkscape:connector-curvature="0"
           id="path2709"
           style="font-style:normal;font-variant:normal;font-weight:normal;font-stretch:normal;font-family:'Times New Roman';-inkscape-font-specification:'Times New Roman, ';fill:#00503f;fill-opacity:1;stroke-width:0.26458332"
           d="m 135.97231,84.205186 -1.17577,2.660086 -0.20986,-0.09276 q 0.23635,-0.810822 0.17033,-1.382396 -0.0603,-0.569067 -0.43029,-1.051243 -0.36995,-0.482176 -0.89176,-0.712818 -0.58987,-0.260725 -1.136,-0.0682 -0.54363,0.186851 -0.74669,0.646269 -0.15543,0.351653 -0.0394,0.748716 0.16363,0.580819 1.17179,1.873923 0.82194,1.054852 1.07541,1.539783 0.26165,0.481767 0.28599,0.994241 0.03,0.51498 -0.17305,0.974398 -0.38607,0.873461 -1.34747,1.207868 -0.95323,0.331242 -2.01953,-0.140069 -0.33464,-0.147912 -0.60701,-0.329321 -0.16329,-0.106075 -0.64141,-0.527586 -0.46995,-0.424675 -0.61741,-0.489856 -0.1418,-0.06267 -0.26448,-0.0152 -0.11701,0.04998 -0.27454,0.299007 l -0.20986,-0.09276 1.16574,-2.637399 0.20986,0.09276 q -0.21855,0.893268 -0.152,1.417618 0.0691,0.518679 0.45919,1.016554 0.3958,0.500383 1.00836,0.771136 0.70898,0.313372 1.28281,0.119534 0.5795,-0.191331 0.80513,-0.701796 0.12535,-0.283591 0.0944,-0.643049 -0.0253,-0.356952 -0.24394,-0.751917 -0.14599,-0.267927 -0.88971,-1.254307 -0.74122,-0.992053 -1.01553,-1.506535 -0.26864,-0.511975 -0.30868,-1.004268 -0.04,-0.492293 0.17055,-0.968727 0.36602,-0.828086 1.26449,-1.142846 0.90099,-0.320432 1.88221,0.113274 0.61256,0.270754 1.16598,0.874705 0.25495,0.282186 0.3854,0.339846 0.14747,0.06518 0.27582,0.02022 0.13653,-0.04813 0.31108,-0.289637 z" />
        <path
           inkscape:connector-curvature="0"
           id="path2711"
           style="font-style:normal;font-variant:normal;font-weight:normal;font-stretch:normal;font-family:'Times New Roman';-inkscape-font-specification:'Times New Roman, ';fill:#00503f;fill-opacity:1;stroke-width:0.26458332"
           d="m 139.34123,90.500921 1.05212,4.243264 q 0.25645,1.047756 0.57294,1.566182 0.31971,0.513125 0.76165,0.824788 l -0.11901,0.19616 -3.41956,-2.07477 0.11902,-0.196161 q 0.30749,0.186569 0.50115,0.166255 0.20218,-0.0224 0.27938,-0.149638 0.0772,-0.127239 0.0853,-0.260137 0.0134,-0.129682 -0.10032,-0.575852 l -0.99183,-3.960074 -1.4057,2.316816 q -0.33132,0.546069 -0.36855,0.76284 -0.0274,0.164708 0.0844,0.363072 0.15077,0.265558 0.40525,0.419959 l 0.24387,0.147968 -0.11901,0.196161 -3.06435,-1.859252 0.11902,-0.19616 0.25448,0.154401 q 0.44533,0.270203 0.80441,0.132657 0.23018,-0.09245 0.62261,-0.739252 l 2.81783,-4.644236 q 0.33132,-0.546069 0.37177,-0.768142 0.0242,-0.159406 -0.0823,-0.354553 -0.15607,-0.268774 -0.41055,-0.423176 l -0.25448,-0.154401 0.11902,-0.196161 3.06435,1.859252 -0.11902,0.19616 -0.24387,-0.147968 q -0.24918,-0.151185 -0.55644,-0.170782 -0.21581,-0.01489 -0.38237,0.116161 -0.16655,0.131052 -0.48822,0.661216 l -1.33493,2.200181 q 0.16715,-0.0364 1.13484,-0.232621 2.44953,-0.486687 3.07095,-0.7697 0.27182,-0.125215 0.36832,-0.284264 0.074,-0.121938 0.0173,-0.279617 -0.0534,-0.16298 -0.31852,-0.323815 l -0.16435,-0.09972 0.11902,-0.196161 2.64022,1.601916 -0.11902,0.19616 q -0.23649,-0.136233 -0.46273,-0.193716 -0.22624,-0.05748 -0.60486,-0.0551 -0.37541,-0.0029 -1.0035,0.123729 -0.18097,0.03526 -1.73566,0.433846 z" />
        <path
           inkscape:connector-curvature="0"
           id="path2713"
           style="font-style:normal;font-variant:normal;font-weight:normal;font-stretch:normal;font-family:'Times New Roman';-inkscape-font-specification:'Times New Roman, ';fill:#00503f;fill-opacity:1;stroke-width:0.26458332"
           d="m 148.57578,92.822332 -2.09329,2.581859 1.43544,1.163804 q 0.55876,0.453024 0.88331,0.436742 0.43012,-0.0185 0.91205,-0.553826 l 0.17823,0.144499 -1.84334,2.273577 -0.17823,-0.144499 q 0.3192,-0.531548 0.36111,-0.721097 0.05,-0.238888 -0.0694,-0.495347 -0.11939,-0.256458 -0.52882,-0.588416 l -1.43544,-1.163803 -1.7457,2.153154 q -0.35149,0.433521 -0.39106,0.561102 -0.0357,0.122764 0.0138,0.258675 0.0534,0.131093 0.32312,0.349795 l 1.10789,0.898237 q 0.55394,0.449122 0.86691,0.575132 0.31296,0.12601 0.72773,0.0871 0.54078,-0.0565 1.34205,-0.40478 l 0.19267,0.15622 -1.8914,1.18081 -5.03366,-4.081118 0.1445,-0.178226 0.23121,0.187459 q 0.23121,0.187458 0.52816,0.244601 0.21663,0.0479 0.39458,-0.06328 0.18278,-0.107277 0.56941,-0.58415 l 3.44064,-4.243689 q 0.5038,-0.62138 0.49572,-0.867427 -0.0172,-0.33327 -0.42182,-0.661322 l -0.23121,-0.187458 0.1445,-0.178225 5.03366,4.081123 -1.08764,1.4892 -0.18786,-0.15231 q 0.31672,-0.597421 0.3477,-0.891637 0.0358,-0.290311 -0.12304,-0.586735 -0.1341,-0.228468 -0.6206,-0.622912 z" />
        <path
           inkscape:connector-curvature="0"
           id="path2715"
           style="font-style:normal;font-variant:normal;font-weight:normal;font-stretch:normal;font-family:'Times New Roman';-inkscape-font-specification:'Times New Roman, ';fill:#00503f;fill-opacity:1;stroke-width:0.26458332"
           d="m 154.26448,105.86444 0.1104,0.17769 -2.14444,1.06136 -4.50901,-4.69734 0.16553,-0.15889 0.219,0.22816 q 0.36931,0.38473 0.77873,0.30978 0.23333,-0.0435 0.75228,-0.54161 l 3.91445,-3.757505 q 0.56815,-0.545375 0.59107,-0.808054 0.0294,-0.363422 -0.3013,-0.707893 l -0.21901,-0.228157 0.16553,-0.158888 2.63669,2.746824 -0.16552,0.158889 q -0.45931,-0.487449 -0.74221,-0.59411 -0.2786,-0.102187 -0.49047,-0.03635 -0.21186,0.06584 -0.75317,0.585448 l -3.81156,3.658736 q -0.37131,0.35643 -0.44129,0.56113 -0.0424,0.14386 0.0202,0.29865 0.0626,0.15478 0.62517,0.74083 l 0.42514,0.44289 q 0.66991,0.69789 1.04334,0.88097 0.37344,0.18307 0.85621,0.16663 0.48725,-0.0207 1.27423,-0.32919 z" />
        <path
           inkscape:connector-curvature="0"
           id="path2717"
           style="font-style:normal;font-variant:normal;font-weight:normal;font-stretch:normal;font-family:'Times New Roman';-inkscape-font-specification:'Times New Roman, ';fill:#00503f;fill-opacity:1;stroke-width:0.26458332"
           d="m 155.47153,110.81502 -0.17999,0.1423 -2.23445,-2.8263 0.17998,-0.1423 0.18461,0.2335 q 0.32305,0.40862 0.70756,0.40503 0.24796,-0.006 0.84144,-0.47552 l 4.26134,-3.36898 q 0.50104,-0.39613 0.61158,-0.58628 0.0831,-0.1448 0.0515,-0.36482 -0.0525,-0.30634 -0.23707,-0.53984 l -0.1846,-0.2335 0.17999,-0.1423 2.23445,2.8263 -0.17999,0.1423 -0.18845,-0.23836 q -0.3192,-0.40376 -0.70371,-0.40016 -0.25181,0.001 -0.84529,0.47065 l -4.26134,3.36898 q -0.50104,0.39613 -0.61158,0.58628 -0.0831,0.14479 -0.0477,0.36968 0.0486,0.30148 0.23323,0.53498 z" />
        <path
           inkscape:connector-curvature="0"
           id="path2719"
           style="font-style:normal;font-variant:normal;font-weight:normal;font-stretch:normal;font-family:'Times New Roman';-inkscape-font-specification:'Times New Roman, ';fill:#00503f;fill-opacity:1;stroke-width:0.26458332"
           d="m 165.35542,110.48449 q 0.87269,1.38512 0.4561,3.06215 -0.40803,1.67898 -1.98203,2.67067 -1.62121,1.02144 -3.33613,0.6727 -1.71491,-0.34875 -2.63057,-1.80207 -0.92558,-1.46906 -0.51287,-3.12899 0.41601,-1.65469 2.07395,-2.69927 1.69466,-1.06772 3.49222,-0.58781 1.56003,0.41701 2.43933,1.81262 z m -0.44581,0.14163 q -0.60163,-0.95489 -1.67354,-1.08576 -1.33431,-0.16345 -3.03423,0.90758 -1.74188,1.09747 -2.21163,2.4342 -0.35323,1.02145 0.23848,1.9606 0.63137,1.00211 1.82302,1.16016 1.19496,0.16329 2.87913,-0.89782 1.82583,-1.15036 2.27014,-2.43442 0.34992,-1.02669 -0.29137,-2.04454 z" />
        <path
           inkscape:connector-curvature="0"
           id="path2721"
           style="font-style:normal;font-variant:normal;font-weight:normal;font-stretch:normal;font-family:'Times New Roman';-inkscape-font-specification:'Times New Roman, ';fill:#00503f;fill-opacity:1;stroke-width:0.26458332"
           d="m 168.1236,115.36294 0.92358,2.08678 -3.68645,7.25333 4.43441,-1.96261 q 0.70883,-0.31371 0.81435,-0.55029 0.1453,-0.31522 -0.0555,-0.76887 l -0.11796,-0.26652 0.20981,-0.0929 1.18459,2.67653 -0.20981,0.0929 -0.12047,-0.27219 q -0.21583,-0.48768 -0.60106,-0.56131 -0.23667,-0.0444 -0.88312,0.24166 l -6.48151,2.86862 -0.0904,-0.20414 3.94862,-7.81015 -4.73496,2.09562 q -0.70883,0.31372 -0.81686,0.54463 -0.14279,0.32089 0.0555,0.76887 l 0.12046,0.27219 -0.20981,0.0928 -1.18459,-2.67652 0.20981,-0.0929 0.11796,0.26652 q 0.21835,0.49334 0.60357,0.56698 0.23667,0.0444 0.88312,-0.24167 l 5.34739,-2.36667 q 0.24319,-0.50774 0.29015,-0.73874 0.0495,-0.22533 0.009,-0.60758 -0.0217,-0.18704 -0.16982,-0.5216 z" />
      </g>
      <path
         sodipodi:nodetypes="cccccccccsccccscsscccccssscscccsccccccccccsccsccccsccsccssscccccccccscccccsscccsccsssccccssc"
         inkscape:connector-curvature="0"
         id="path4294"
         d="m 39.802186,152.75803 c -0.7229,-0.95196 -0.812434,-1.00737 -1.281217,-0.79279 -0.836174,0.38272 -2.687697,-0.44035 -3.452627,-1.53494 -0.347361,-0.49704 -0.530726,-0.92203 -0.407464,-0.94443 0.585653,-0.10652 2.26285,0.39688 2.931384,0.87976 l 0.745863,0.53874 -0.379916,-0.87931 c -0.296567,-0.68638 -0.484462,-0.86509 -0.856355,-0.81447 -0.901126,0.12269 -2.167852,-0.53086 -2.747424,-1.4174 -0.918501,-1.40492 -0.838391,-1.69792 0.34398,-1.25808 0.5599,0.2083 1.310839,0.65256 1.66875,0.98728 0.763958,0.71444 0.842189,0.64115 0.459151,-0.4302 -0.241721,-0.67611 -0.382992,-0.79576 -0.963025,-0.81571 -0.898655,-0.031 -2.179807,-1.34599 -2.375716,-2.4386 -0.07816,-0.43607 -0.119277,-0.85431 -0.09137,-0.92943 0.119229,-0.32048 2.181185,1.29991 2.593239,2.03789 0.146092,0.26167 0.290132,0.40991 0.320075,0.32941 0.02992,-0.0805 2.14e-4,-0.53598 -0.06603,-1.01225 -0.09191,-0.66073 -0.250465,-0.89439 -0.668947,-0.98601 -0.943072,-0.20643 -1.643961,-1.08656 -1.864427,-2.34125 -0.115279,-0.65609 -0.125786,-1.23128 -0.02328,-1.27819 0.286726,-0.13125 1.638202,1.3005 2.024742,2.145 0.403054,0.88056 0.442385,0.84005 0.393017,-0.4049 -0.02354,-0.59403 -0.185472,-0.98515 -0.448298,-1.08291 -0.898415,-0.33422 -1.65569,-2.431 -1.26108,-3.49175 0.258374,-0.69454 0.612023,-0.39992 1.285131,1.07065 l 0.612894,1.33901 0.238185,-0.80141 c 0.189289,-0.6369 0.133678,-0.88786 -0.270614,-1.22265 -0.279831,-0.23171 -0.614733,-0.78899 -0.744215,-1.23843 -0.261605,-0.90809 -0.0083,-2.64616 0.397261,-2.72735 0.320004,-0.0641 0.928023,1.29836 1.06099,2.37738 0.09631,0.78172 0.10159,0.78582 0.309027,0.24142 0.115997,-0.30462 0.348944,-0.74772 0.517492,-0.98468 0.233396,-0.32814 0.209736,-0.45753 -0.09921,-0.54276 -0.937428,-0.25864 -0.946504,-2.95144 -0.01226,-3.63309 0.291923,-0.21301 0.380474,-0.14152 0.581157,0.46912 0.130219,0.39623 0.207293,0.99401 0.171276,1.32838 -0.118678,1.10164 0.01565,1.15091 0.67437,0.24775 l 0.65103,-0.89268 -0.49748,0.93839 c -0.482142,0.90946 -0.480277,0.93051 0.06055,0.68296 0.486605,-0.22273 2.011887,-0.40311 2.348813,-0.27777 0.395596,0.14716 -0.326034,0.84376 -1.368286,1.32081 -0.862495,0.39479 -1.336491,0.47563 -1.620393,0.27639 -0.353508,-0.24808 -0.441954,-0.17236 -0.742574,0.63575 -0.324734,0.87292 -0.316878,0.90056 0.161784,0.57051 0.276668,-0.19076 0.94929,-0.42662 1.494696,-0.52413 l 0.99166,-0.17727 -0.448125,0.79394 c -0.428963,0.76002 -1.94939,1.63722 -2.787743,1.60838 -0.246029,-0.008 -0.363818,0.22601 -0.469768,0.93527 -0.108818,0.72812 -0.07816,0.83747 0.132663,0.4738 0.326292,-0.56287 2.407679,-1.53482 2.562475,-1.19663 0.230596,0.50379 -0.958892,1.86728 -1.998388,2.29074 -1.035903,0.42199 -1.046261,0.4356 -1.050344,1.37977 -0.0032,0.74969 0.04067,0.84341 0.205434,0.43825 0.375046,-0.92244 2.287869,-2.07329 2.53794,-1.52695 0.198286,0.43321 -1.073904,2.16019 -1.854524,2.51751 -0.834802,0.3821 -0.835254,0.3829 -0.715613,1.27347 l 0.119737,0.89115 0.240707,-0.61858 c 0.271492,-0.69765 1.115487,-1.53654 1.779744,-1.76896 1.028356,-0.35981 -0.01223,2.29532 -1.204334,3.07297 -0.628914,0.41027 -0.632991,0.42307 -0.365024,1.14764 l 0.270988,0.73274 0.32107,-0.79835 c 0.351728,-0.87466 1.24348,-1.83803 1.684212,-1.8195 0.624158,0.0263 -0.148768,2.60733 -1.014563,3.38804 -0.483444,0.43595 -0.502004,0.53509 -0.210272,1.1232 0.405804,0.81813 0.66154,0.92075 0.56722,0.22763 -0.07657,-0.56265 0.562088,-1.82938 1.225836,-2.43137 0.350543,-0.31794 0.391591,-0.27177 0.504007,0.56689 0.136693,1.01963 -0.538028,3.19083 -1.021625,3.28756 -0.178347,0.0356 0.06518,0.50795 0.587747,1.13972 0.490758,0.59333 0.858159,1.17051 0.816449,1.28263 -0.124735,0.33532 -0.392318,0.12477 -1.210412,-0.95257 z m 0.05282,-20.73412 c -0.02875,-0.14374 -0.208151,-0.25974 -0.398655,-0.25778 -0.928318,0.01 -0.555591,-2.73156 0.462823,-3.40359 0.441174,-0.29112 0.470093,-0.25251 0.506955,0.67699 0.02149,0.54214 -0.06176,1.25679 -0.185,1.58811 -0.32705,0.87916 -0.14947,1.02902 0.81127,0.6854 0.869551,-0.31089 2.234061,-0.0328 2.065278,0.42094 -0.04992,0.13428 -0.509247,0.41869 -1.02067,0.63204 -0.924577,0.3857 -2.133295,0.20121 -2.24199,-0.34217 z m 1.195339,-1.75846 c -0.218405,-0.47715 0.369397,-1.30355 1.19647,-1.68211 0.490086,-0.22432 0.998744,-0.3678 1.130342,-0.31885 0.46121,0.17158 -0.240643,1.38614 -1.07348,1.85764 -0.84413,0.47789 -1.087455,0.50572 -1.253333,0.1433 z"
         style="display:inline;fill:#00503f;fill-opacity:1;stroke:none;stroke-width:0.23705956" />
      <path
         sodipodi:nodetypes="cccccccccsccccscsscccccssscscccsccccccccccsccsccccsccsccssscccccccccscccccsscccsccsssccccssc"
         inkscape:connector-curvature="0"
         id="path4294-7"
         d="m 170.21248,152.75803 c 0.7229,-0.95196 0.81243,-1.00737 1.28122,-0.79279 0.83617,0.38272 2.68769,-0.44035 3.45262,-1.53494 0.34737,-0.49704 0.53073,-0.92203 0.40747,-0.94443 -0.58565,-0.10652 -2.26285,0.39688 -2.93139,0.87976 l -0.74586,0.53874 0.37992,-0.87931 c 0.29656,-0.68638 0.48446,-0.86509 0.85635,-0.81447 0.90113,0.12269 2.16785,-0.53086 2.74743,-1.4174 0.9185,-1.40492 0.83839,-1.69792 -0.34398,-1.25808 -0.5599,0.2083 -1.31084,0.65256 -1.66875,0.98728 -0.76396,0.71444 -0.84219,0.64115 -0.45915,-0.4302 0.24172,-0.67611 0.38299,-0.79576 0.96302,-0.81571 0.89866,-0.031 2.17981,-1.34599 2.37572,-2.4386 0.0782,-0.43607 0.11927,-0.85431 0.0914,-0.92943 -0.11923,-0.32048 -2.18119,1.29991 -2.59324,2.03789 -0.14609,0.26167 -0.29013,0.40991 -0.32008,0.32941 -0.0299,-0.0805 -2.1e-4,-0.53598 0.066,-1.01225 0.0919,-0.66073 0.25047,-0.89439 0.66895,-0.98601 0.94307,-0.20643 1.64396,-1.08656 1.86443,-2.34125 0.11528,-0.65609 0.12578,-1.23128 0.0233,-1.27819 -0.28673,-0.13125 -1.63821,1.3005 -2.02475,2.145 -0.40305,0.88056 -0.44238,0.84005 -0.39301,-0.4049 0.0235,-0.59403 0.18547,-0.98515 0.4483,-1.08291 0.89841,-0.33422 1.65569,-2.431 1.26108,-3.49175 -0.25838,-0.69454 -0.61203,-0.39992 -1.28514,1.07065 l -0.61289,1.33901 -0.23818,-0.80141 c -0.18929,-0.6369 -0.13368,-0.88786 0.27061,-1.22265 0.27983,-0.23171 0.61473,-0.78899 0.74421,-1.23843 0.26161,-0.90809 0.008,-2.64616 -0.39726,-2.72735 -0.32,-0.0641 -0.92802,1.29836 -1.06099,2.37738 -0.0963,0.78172 -0.10159,0.78582 -0.30902,0.24142 -0.116,-0.30462 -0.34895,-0.74772 -0.5175,-0.98468 -0.23339,-0.32814 -0.20973,-0.45753 0.0992,-0.54276 0.93743,-0.25864 0.94651,-2.95144 0.0123,-3.63309 -0.29192,-0.21301 -0.38047,-0.14152 -0.58115,0.46912 -0.13022,0.39623 -0.2073,0.99401 -0.17128,1.32838 0.11868,1.10164 -0.0156,1.15091 -0.67437,0.24775 l -0.65103,-0.89268 0.49748,0.93839 c 0.48214,0.90946 0.48028,0.93051 -0.0605,0.68296 -0.4866,-0.22273 -2.01189,-0.40311 -2.34881,-0.27777 -0.3956,0.14716 0.32603,0.84376 1.36828,1.32081 0.8625,0.39479 1.3365,0.47563 1.6204,0.27639 0.35351,-0.24808 0.44195,-0.17236 0.74257,0.63575 0.32474,0.87292 0.31688,0.90056 -0.16178,0.57051 -0.27667,-0.19076 -0.94929,-0.42662 -1.4947,-0.52413 l -0.99166,-0.17727 0.44813,0.79394 c 0.42896,0.76002 1.94939,1.63722 2.78774,1.60838 0.24603,-0.008 0.36382,0.22601 0.46977,0.93527 0.10882,0.72812 0.0782,0.83747 -0.13267,0.4738 -0.32629,-0.56287 -2.40767,-1.53482 -2.56247,-1.19663 -0.2306,0.50379 0.95889,1.86728 1.99839,2.29074 1.0359,0.42199 1.04626,0.4356 1.05034,1.37977 0.003,0.74969 -0.0407,0.84341 -0.20543,0.43825 -0.37505,-0.92244 -2.28787,-2.07329 -2.53794,-1.52695 -0.19829,0.43321 1.0739,2.16019 1.85452,2.51751 0.8348,0.3821 0.83526,0.3829 0.71561,1.27347 l -0.11973,0.89115 -0.24071,-0.61858 c -0.27149,-0.69765 -1.11549,-1.53654 -1.77974,-1.76896 -1.02836,-0.35981 0.0122,2.29532 1.20433,3.07297 0.62891,0.41027 0.63299,0.42307 0.36502,1.14764 l -0.27098,0.73274 -0.32107,-0.79835 c -0.35173,-0.87466 -1.24348,-1.83803 -1.68422,-1.8195 -0.62415,0.0263 0.14877,2.60733 1.01457,3.38804 0.48344,0.43595 0.502,0.53509 0.21027,1.1232 -0.4058,0.81813 -0.66154,0.92075 -0.56722,0.22763 0.0766,-0.56265 -0.56209,-1.82938 -1.22584,-2.43137 -0.35054,-0.31794 -0.39159,-0.27177 -0.504,0.56689 -0.1367,1.01963 0.53802,3.19083 1.02162,3.28756 0.17835,0.0356 -0.0652,0.50795 -0.58775,1.13972 -0.49075,0.59333 -0.85816,1.17051 -0.81644,1.28263 0.12473,0.33532 0.39231,0.12477 1.21041,-0.95257 z m -0.0528,-20.73412 c 0.0288,-0.14374 0.20815,-0.25974 0.39866,-0.25778 0.92831,0.01 0.55559,-2.73156 -0.46283,-3.40359 -0.44117,-0.29112 -0.47009,-0.25251 -0.50695,0.67699 -0.0215,0.54214 0.0618,1.25679 0.185,1.58811 0.32705,0.87916 0.14947,1.02902 -0.81127,0.6854 -0.86955,-0.31089 -2.23406,-0.0328 -2.06528,0.42094 0.0499,0.13428 0.50925,0.41869 1.02067,0.63204 0.92458,0.3857 2.13329,0.20121 2.24199,-0.34217 z m -1.19534,-1.75846 c 0.21841,-0.47715 -0.3694,-1.30355 -1.19647,-1.68211 -0.49008,-0.22432 -0.99874,-0.3678 -1.13034,-0.31885 -0.46121,0.17158 0.24064,1.38614 1.07348,1.85764 0.84413,0.47789 1.08745,0.50572 1.25333,0.1433 z"
         style="display:inline;fill:#00503f;fill-opacity:1;stroke:none;stroke-width:0.23705956" />
    </g>
  </g>
</svg>
